<?xml version="1.0" encoding="UTF-8"?>
<!DOCTYPE svg PUBLIC "-//W3C//DTD SVG 1.1//EN" "http://www.w3.org/Graphics/SVG/1.1/DTD/svg11.dtd">
<!-- Creator: CorelDRAW 2019 (64 Bit) -->
<svg xmlns="http://www.w3.org/2000/svg" xml:space="preserve" width="2.71mm" height="2.71mm" version="1.1" style="shape-rendering:geometricPrecision; text-rendering:geometricPrecision; image-rendering:optimizeQuality; fill-rule:evenodd; clip-rule:evenodd"
viewBox="0 0 271 271"
 xmlns:xlink="http://www.w3.org/1999/xlink"
 xmlns:xodm="http://www.corel.com/coreldraw/odm/2003">
 <defs>
  <style type="text/css">
   <![CDATA[
    .fil0 {fill:#D2D3D5}
   ]]>
  </style>
 </defs>
 <g id="Camada_x0020_1">
  <metadata id="CorelCorpID_0Corel-Layer"/>
  <g id="_1797514970736">
   <path class="fil0" d="M161 47.1l0 0c-3.16,-13.42 -9.82,-25.51 -18.98,-35.28l107.92 0 -7.75 0c-30.75,3.59 -58.73,16.26 -81.19,35.28z"/>
   <path class="fil0" d="M96.03 136.52l0 -63.51 -83.95 0c-0.31,-2.65 -0.46,-5.34 -0.46,-8.08 0,-20.96 9.01,-39.86 23.36,-53.11l99.22 0c11.16,10.3 19.09,24.02 22.07,39.47 0.84,4.42 1.28,8.98 1.28,13.64l0 0c0,-4.66 -0.44,-9.22 -1.28,-13.64 -23.16,21.31 -39.75,49.65 -46.37,81.62l0 0c-4.45,1.64 -9.07,2.86 -13.87,3.61z"/>
   <path class="fil0" d="M139.51 259.08l-43.48 0 0 -116.98c4.36,-0.63 8.6,-1.63 12.71,-2.94 22,-7.08 39.75,-23.57 48.48,-44.66l0 0c-8.73,21.09 -26.48,37.58 -48.48,44.66 -1.36,8.15 -2.04,16.53 -2.04,25.05 0,35.82 12.26,68.76 32.81,94.87z"/>
   <path class="fil0" d="M109.9 132.91c6.62,-31.97 23.21,-60.31 46.37,-81.62 0.84,4.42 1.28,8.98 1.28,13.64 0,31.14 -19.86,57.75 -47.65,67.98z"/>
   <path class="fil0" d="M157.22 259.08l-17.71 0c-20.55,-26.11 -32.81,-59.05 -32.81,-94.87 0,-8.52 0.68,-16.9 2.04,-25.05 22,-7.08 39.75,-23.57 48.48,-44.66l0 164.58z"/>
   <path class="fil0" d="M215.59 73.01l-52.92 0c0.26,-2.66 0.42,-5.35 0.42,-8.08 0,-6.14 -0.74,-12.1 -2.09,-17.83 22.46,-19.02 50.44,-31.69 81.19,-35.28l7.75 0 -34.35 61.19zm-52.5 -8.08l0 0z"/>
  </g>
 </g>
</svg>
